<svg width="81" height="20" viewBox="0 0 81 20" fill="none" xmlns="http://www.w3.org/2000/svg">
<path d="M12.3859 10.9956L19.1007 9.88873L12.3859 8.78183L16.3519 3.25013L10.8223 7.21771L9.71588 0.500244L8.61035 7.21771L3.07987 3.25013L7.0459 8.78183L0.331055 9.88873L7.0459 10.9956L3.07987 16.5273L8.61035 12.5598L9.71588 19.2772L10.8223 12.5598L16.3519 16.5273L12.3859 10.9956Z" fill="white"/>
<path d="M46.7811 6.61752C46.1608 6.30677 45.4504 6.15186 44.6517 6.15186H41.3783V9.47348H42.7691V7.32915H44.5879C45.1369 7.32915 45.6202 7.4343 46.0378 7.64461C46.4555 7.85491 46.7764 8.1544 47.0007 8.54402C47.225 8.93271 47.3376 9.38429 47.3376 9.89784C47.3376 10.4114 47.225 10.863 47.0007 11.2517C46.7764 11.6403 46.4555 11.9398 46.0378 12.1511C45.6202 12.3614 45.1369 12.4665 44.5879 12.4665H42.7691V10.3156H41.3783V13.6438H44.6517C45.4504 13.6438 46.1599 13.4889 46.7811 13.1782C47.4015 12.8674 47.8829 12.429 48.2254 11.8619C48.568 11.2948 48.7388 10.6405 48.7388 9.89784C48.7388 9.15615 48.568 8.50084 48.2254 7.93377C47.8829 7.36671 47.4015 6.92733 46.7811 6.61752ZM34.4955 6.15186L31.1254 13.6438H32.5594L33.298 11.9098H37.0425L37.7914 13.6438H39.2461L35.8656 6.15186H34.4955ZM33.7681 10.8179L35.1693 7.54321L36.5817 10.8179H33.7681ZM28.7125 10.2724C28.9866 9.86592 29.1245 9.38054 29.1245 8.81723C29.1245 8.268 28.996 7.79388 28.7397 7.39393C28.4826 6.99398 28.1138 6.68794 27.6323 6.47388C27.1509 6.25982 26.5859 6.15279 25.9365 6.15279H22.8555V9.47442H24.2463V7.33009H25.8727C26.4789 7.33009 26.9388 7.45871 27.2532 7.71502C27.5666 7.97226 27.7243 8.33935 27.7243 8.81723C27.7243 9.2951 27.5676 9.66501 27.2532 9.92507C26.9388 10.1861 26.4789 10.3156 25.8727 10.3156H22.8555V13.6438H24.2463V11.4601H25.9365C26.0651 11.4601 26.1608 11.4563 26.2256 11.4498L27.7553 13.6438H29.2531L27.531 11.1822C28.0434 10.9822 28.4376 10.679 28.7125 10.2724ZM51.3665 13.6438H52.7574V6.15186H51.3665V13.6438ZM58.2635 6.15186L54.8934 13.6438H56.3274L57.066 11.9098H60.8104L61.5594 13.6438H63.0141L59.6336 6.15186H58.2635ZM57.5361 10.8179L58.9373 7.54321L60.3497 10.8179H57.5361ZM73.9756 6.15186V7.32915H76.4576V13.6438H77.8484V7.32915H80.331V6.15186H73.9756ZM70.4206 11.2254L66.2913 6.15186H65.1463V13.6438H66.5265V8.57031L70.6559 13.6438H71.8008V6.15186H70.4206V11.2254Z" fill="white"/>
</svg>
