<svg width="86" height="25" viewBox="0 0 766 224" fill="none" xmlns="http://www.w3.org/2000/svg">
    <path d="M111.386 3H111.382C51.0729 3 2.18286 51.89 2.18286 112.199V112.203C2.18286 172.512 51.0729 221.402 111.382 221.402H111.386C171.695 221.402 220.585 172.512 220.585 112.203V112.199C220.585 51.89 171.695 3 111.386 3Z" fill="url(#paint0_radial_2034_5070)" fill-opacity="0.7"/>
    <path d="M111.386 3H111.382C51.0729 3 2.18286 51.89 2.18286 112.199V112.203C2.18286 172.512 51.0729 221.402 111.382 221.402H111.386C171.695 221.402 220.585 172.512 220.585 112.203V112.199C220.585 51.89 171.695 3 111.386 3Z" stroke="url(#paint1_linear_2034_5070)" stroke-width="4.12083"/>
    <path d="M157.609 95.5337V66.4512H87.4893L48.5413 112.198L87.4893 157.946H157.609V128.863" stroke="white" stroke-width="10.3021" stroke-miterlimit="10"/>
    <path d="M87.488 66.4512L127.054 112.198L87.488 157.946" stroke="white" stroke-width="10.3021" stroke-miterlimit="10"/>
    <path d="M345.744 66.393V55.5396H266.033V174.258H345.744V163.403H278.583V118.969H340.657V108.114H278.583V66.393H345.744Z" fill="white"/>
    <path d="M377.374 168.491C373.473 164.649 371.523 158.316 371.523 149.497V100.482H356.597V89.6279H371.523V64.0186H383.733V89.6279H405.781V100.482H383.733V149.497C383.733 154.474 384.723 158.035 386.702 160.181C388.678 162.33 391.986 163.403 396.622 163.403H405.781V174.258H396.622C387.69 174.258 381.274 172.336 377.374 168.491Z" fill="white"/>
    <path d="M423.418 55.5396H435.629V101.33C438.229 97.3746 441.565 94.2075 445.636 91.8332C449.706 89.4589 453.831 88.2718 458.016 88.2718H469.888C477.689 88.2718 483.991 90.9298 488.798 96.2428C493.603 101.559 496.005 108.512 496.005 117.103V174.258H483.794V116.764C483.794 111.565 482.494 107.325 479.894 104.044C477.292 100.766 473.844 99.1261 469.548 99.1261H458.354C453.038 99.1261 448.205 101.191 443.855 105.316C439.501 109.444 436.758 114.729 435.629 121.174V174.258H423.418V55.5396Z" fill="white"/>
    <path d="M521.951 167.219C516.185 161.622 513.301 154.19 513.301 144.917V120.665C513.301 110.942 516.185 103.111 521.951 97.1751C527.718 91.2394 535.35 88.2715 544.847 88.2715H558.753C567.798 88.2715 575.092 91.1549 580.633 96.9206C586.17 102.687 588.943 110.319 588.943 119.817V134.741H525.513V144.917C525.513 150.797 527.294 155.575 530.855 159.248C534.416 162.923 539.081 164.76 544.847 164.76H557.737C563.389 164.76 567.969 163.207 571.474 160.096C574.977 156.988 576.731 152.832 576.731 147.631H588.603C588.603 156 585.776 162.754 580.124 167.897C574.468 173.044 567.007 175.615 557.737 175.615H544.847C535.35 175.615 527.718 172.816 521.951 167.219ZM576.731 124.226V119.817C576.731 113.6 575.092 108.597 571.814 104.807C568.532 101.02 564.182 99.1259 558.753 99.1259H544.847C539.081 99.1259 534.416 101.105 530.855 105.062C527.294 109.021 525.513 114.22 525.513 120.665V124.226H576.731Z" fill="white"/>
    <path d="M606.241 89.6277H618.113V102.178C620.712 98.1078 624.105 94.7747 628.288 92.172C632.471 89.5723 636.654 88.2715 640.84 88.2715H652.371C660.174 88.2715 666.474 90.9295 671.281 96.2425C676.086 101.559 678.491 108.511 678.491 117.103V174.258H666.279V116.764C666.279 111.565 664.977 107.324 662.377 104.044C659.776 100.766 656.329 99.1259 652.033 99.1259H641.178C635.862 99.1259 631.029 101.219 626.678 105.401C622.324 109.585 619.582 114.956 618.453 121.513V174.258H606.241V89.6277Z" fill="white"/>
    <path d="M701.129 169.17C696.209 164.874 693.751 159.107 693.751 151.871V146.443C693.751 139.32 696.296 133.613 701.383 129.314C706.471 125.019 713.196 122.869 721.566 122.869H732.42C736.15 122.869 739.993 123.436 743.953 124.565C747.909 125.697 751.301 127.223 754.128 129.145V115.068C754.128 110.319 752.658 106.447 749.718 103.45C746.778 100.456 742.877 98.9559 738.017 98.9559H724.448C719.586 98.9559 715.685 100.088 712.747 102.348C709.805 104.611 708.337 107.605 708.337 111.336H696.125C696.125 104.441 698.725 98.8714 703.928 94.6308C709.127 90.3913 715.968 88.2715 724.448 88.2715H738.017C746.382 88.2715 753.136 90.7303 758.283 95.6489C763.426 100.568 766 107.041 766 115.068V174.258H754.466V162.386C751.865 166.456 748.446 169.678 744.207 172.053C739.967 174.428 735.583 175.615 731.063 175.615H720.886C712.632 175.615 706.047 173.468 701.129 169.17ZM731.401 164.929C736.715 164.929 741.464 163.292 745.647 160.012C749.83 156.733 752.657 152.38 754.128 146.952V140.677C751.865 138.53 748.728 136.806 744.716 135.504C740.701 134.206 736.601 133.554 732.42 133.554H721.566C716.928 133.554 713.17 134.742 710.286 137.116C707.403 139.49 705.962 142.601 705.962 146.443V151.871C705.962 155.83 707.318 158.994 710.033 161.368C712.747 163.742 716.363 164.929 720.886 164.929L731.401 164.929Z" fill="white"/>
    <defs>
        <radialGradient id="paint0_radial_2034_5070" cx="0" cy="0" r="1" gradientUnits="userSpaceOnUse" gradientTransform="translate(111.618 34.8895) rotate(90) scale(230.243 162.068)">
            <stop offset="0.03125" stop-color="#3A3A3A"/>
            <stop offset="1" stop-color="#1C1C1C"/>
        </radialGradient>
        <linearGradient id="paint1_linear_2034_5070" x1="111.384" y1="0.939585" x2="111.384" y2="223.462" gradientUnits="userSpaceOnUse">
            <stop stop-color="white"/>
            <stop offset="1" stop-color="#111111"/>
        </linearGradient>
    </defs>
</svg>
