<svg width="81" height="21" viewBox="0 0 81 21" fill="none" xmlns="http://www.w3.org/2000/svg">
<path d="M27.2725 12.1806H29.03C29.03 12.7753 29.3274 13.1628 30.4518 13.1628C31.4724 13.1628 31.8344 12.8654 31.8344 12.3999C31.8344 12.1676 31.7181 11.9866 31.3823 11.9095C31.0462 11.8319 30.5294 11.7802 29.8958 11.728C28.9787 11.6504 28.2676 11.5086 27.8801 11.2371C27.5181 10.9785 27.2725 10.5135 27.2725 9.98383C27.2725 8.60125 28.6938 7.83838 30.4643 7.83838C32.558 7.83838 33.5144 8.64004 33.5144 10.1261H31.7827C31.7697 9.4537 31.4599 9.10506 30.4906 9.10506C29.6118 9.10506 29.2239 9.40199 29.2239 9.84159C29.2239 10.1127 29.3274 10.3195 29.6894 10.41C30.0122 10.4876 30.5807 10.5394 31.266 10.604C32.0542 10.6816 32.6097 10.7592 33.0877 11.0307C33.5014 11.263 33.7989 11.7414 33.7989 12.2969C33.7989 13.6407 32.6485 14.4294 30.4643 14.4294C28.2159 14.4294 27.2725 13.4731 27.2725 12.1806H27.2725Z" fill="white"/>
<path d="M35.2061 12.1296V9.46786H34.2627V7.94258H35.0251C35.3225 7.94258 35.426 7.77496 35.4647 7.38705L35.5552 6.49536H37.1705V7.94258H39.2121V9.46786H37.1705V12.0262C37.1705 12.6856 37.4804 12.892 38.2557 12.892C38.5273 12.892 38.9281 12.8532 39.1475 12.8015V14.2875C38.9794 14.3263 38.4367 14.4302 37.9071 14.4302C35.9168 14.4302 35.2061 13.5514 35.2061 12.1296V12.1296Z" fill="white"/>
<path fill-rule="evenodd" clip-rule="evenodd" d="M39.7803 12.4921C39.7803 11.4452 40.5297 10.6828 42.2227 10.6828H44.303V10.2566C44.303 9.48079 43.8638 9.17047 42.9592 9.17047C42.2227 9.17047 41.796 9.48079 41.796 9.99752C41.796 10.0363 41.796 10.1402 41.8089 10.2691H40.0001C39.9867 10.1661 39.9738 10.0238 39.9738 9.89454C39.9738 8.60247 41.1112 7.8396 43.0497 7.8396C45.0783 7.8396 46.2674 8.74425 46.2674 10.4501V14.3267H44.303C44.3418 14.004 44.3935 13.4221 44.3935 13.0347H44.3806C44.1866 13.9393 43.463 14.4306 42.3002 14.4306C40.8138 14.4306 39.7803 13.7842 39.7803 12.4921V12.4921ZM44.3012 11.8713V11.742H42.4019C41.8718 11.742 41.549 11.9872 41.549 12.3492C41.549 12.8401 41.9752 13.0987 42.6859 13.0987C43.7069 13.0987 44.3012 12.6466 44.3012 11.8713V11.8713Z" fill="white"/>
<path d="M47.1865 7.94182H49.1505L49.0729 9.76403H49.0988C49.3703 8.54907 50.0551 7.83838 51.3089 7.83838C52.6139 7.83838 53.3768 8.67835 53.3768 10.3325C53.3768 10.6945 53.338 11.263 53.3121 11.5992H51.5287C51.5541 11.2888 51.5675 10.966 51.5675 10.7721C51.5675 9.8416 51.1925 9.46709 50.5723 9.46709C49.7324 9.46709 49.1505 10.1515 49.1505 11.5728V14.3255H47.1865L47.1865 7.94182Z" fill="white"/>
<path fill-rule="evenodd" clip-rule="evenodd" d="M60.9874 14.857C60.9874 16.3172 59.682 17.093 57.4723 17.093C55.2239 17.093 53.8926 16.4724 53.8926 15.4126C53.8926 14.7407 54.3322 14.3269 55.0429 14.2493V14.2369C54.655 13.9912 54.4481 13.6421 54.4481 13.19C54.4481 12.5827 54.7584 12.2078 55.2368 11.988V11.975C54.5645 11.5876 54.19 10.9545 54.19 10.1274C54.19 8.69269 55.3015 7.83975 57.175 7.83975C57.9244 7.83975 58.5451 7.96904 59.023 8.22764L59.036 8.20179C58.7773 7.96904 58.6614 7.71045 58.6614 7.4777C58.6614 6.94849 59.1911 6.63818 60.0052 6.63818C60.3543 6.63818 60.5353 6.66404 60.7159 6.70283V7.94318C60.5995 7.91733 60.4702 7.9044 60.328 7.9044C59.9147 7.9044 59.7207 8.08541 59.7207 8.38233C59.7207 8.5375 59.7725 8.73146 59.863 8.9642C60.0699 9.28697 60.1729 9.67488 60.1729 10.1274C60.1729 11.5617 59.0618 12.4013 57.175 12.4013C56.7875 12.4013 56.4389 12.3629 56.1152 12.2983C56.0639 12.3759 55.9993 12.531 55.9993 12.7116C55.9993 12.996 56.2315 13.1641 56.6195 13.1641H58.6873C60.1345 13.1641 60.9874 13.7972 60.9874 14.857L60.9874 14.857ZM59.0221 15.128C59.0221 14.7789 58.764 14.5849 58.195 14.5849H56.6832C56.153 14.5849 55.8432 14.8047 55.8432 15.1668C55.8432 15.6447 56.438 15.9029 57.4455 15.9029C58.4407 15.9029 59.0221 15.6318 59.0221 15.128ZM56.0369 10.1279C56.0369 10.774 56.4636 11.1614 57.1743 11.1614C57.8984 11.1614 58.3246 10.774 58.3246 10.1279C58.3246 9.46898 57.8984 9.08107 57.1743 9.08107C56.4636 9.08107 56.0369 9.46899 56.0369 10.1279Z" fill="white"/>
<path fill-rule="evenodd" clip-rule="evenodd" d="M61.4268 12.4921C61.4268 11.4452 62.1762 10.6828 63.8692 10.6828H65.9495V10.2566C65.9495 9.48079 65.5103 9.17047 64.6057 9.17047C63.8692 9.17047 63.4429 9.48079 63.4429 9.99752C63.4429 10.0363 63.4429 10.1402 63.4554 10.2691H61.6465C61.6336 10.1661 61.6203 10.0238 61.6203 9.89454C61.6203 8.60247 62.7576 7.8396 64.6962 7.8396C66.7248 7.8396 67.9139 8.74425 67.9139 10.4501V14.3267H65.9495C65.9883 14.004 66.0404 13.4221 66.0404 13.0347H66.027C65.8331 13.9393 65.1095 14.4306 63.9467 14.4306C62.4607 14.4306 61.4268 13.7842 61.4268 12.4921V12.4921ZM65.9477 11.8713V11.742H64.0484C63.5182 11.742 63.1954 11.9872 63.1954 12.3492C63.1954 12.8401 63.6217 13.0987 64.3324 13.0987C65.3533 13.0987 65.9477 12.6466 65.9477 11.8713V11.8713Z" fill="white"/>
<path d="M69.3726 12.1296V9.46786H68.4292V7.94258H69.1921C69.489 7.94258 69.5924 7.77496 69.6312 7.38705L69.7217 6.49536H71.3371V7.94258H73.3791V9.46786H71.3371V12.0262C71.3371 12.6856 71.6474 12.892 72.4227 12.892C72.6942 12.892 73.0946 12.8532 73.3139 12.8015V14.2875C73.1463 14.3263 72.6033 14.4302 72.0736 14.4302C70.0833 14.4302 69.3726 13.5514 69.3726 12.1296V12.1296Z" fill="white"/>
<path fill-rule="evenodd" clip-rule="evenodd" d="M80.3309 11.5099H75.7947C75.8852 12.5563 76.4149 13.0088 77.2937 13.0088C78.0561 13.0088 78.547 12.7377 78.5992 12.1171H80.3309C80.2921 13.5773 79.0771 14.4306 77.2549 14.4306C75.1358 14.4306 73.8174 13.2282 73.8174 11.1996C73.8174 9.09288 75.1358 7.8396 77.2937 7.8396C79.0771 7.8396 80.3309 8.86061 80.3309 10.9543V11.5099ZM78.5996 10.3606C78.5996 9.63695 78.1083 9.26243 77.2941 9.26243C76.4671 9.26243 76.0021 9.62403 75.8469 10.464H78.5996V10.3606Z" fill="white"/>
<g clip-path="url(#clip0_1115_6179)">
<g clip-path="url(#clip1_1115_6179)">
<path d="M12.4306 1.1313L12.968 2.39018C14.0229 4.86196 15.9918 6.83079 18.4635 7.88569L19.7224 8.42314C20.0519 8.56362 20.3194 8.76512 20.5258 9.0051C19.8989 4.51 16.3437 0.954326 11.8486 0.327881C12.0881 0.533847 12.2901 0.801815 12.4306 1.1313H12.4306Z" fill="#999999"/>
<path d="M1.13447 8.42314L2.39337 7.88569C4.86514 6.83079 6.83396 4.86196 7.88937 2.39018L8.42632 1.1313C8.56729 0.801815 8.7688 0.533847 9.00825 0.327881C4.51317 0.954326 0.957985 4.51 0.331055 9.0051C0.537524 8.76512 0.805007 8.56362 1.13447 8.42314Z" fill="#999999"/>
<path d="M19.7224 12.4294L18.4635 12.9668C15.9918 14.0217 14.0229 15.991 12.968 18.4628L12.4306 19.7212C12.2901 20.0507 12.0881 20.3187 11.8486 20.5251C16.3437 19.8982 19.8989 16.3425 20.5258 11.8474C20.3194 12.0874 20.0519 12.2889 19.7224 12.4294H19.7224Z" fill="#999999"/>
<path d="M8.42632 19.7212L7.88937 18.4628C6.83396 15.991 4.86514 14.0217 2.39337 12.9668L1.13447 12.4294C0.805007 12.2889 0.537524 12.0874 0.331055 11.8474C0.957985 16.3425 4.51317 19.8982 9.00825 20.5251C8.7688 20.3187 8.56729 20.0507 8.42632 19.7212Z" fill="#999999"/>
</g>
<path d="M5.84944 9.43849L6.46988 9.17352C7.68779 8.65354 8.65819 7.68365 9.17816 6.46575L9.44263 5.84529C9.8136 4.97637 11.0455 4.97637 11.4164 5.84529L11.6809 6.46575C12.2009 7.68365 13.1713 8.65355 14.3892 9.17352L15.0096 9.43849C15.8785 9.80944 15.8785 11.0408 15.0096 11.4118L14.3892 11.6768C13.1713 12.1967 12.2009 13.1666 11.6809 14.3851L11.4164 15.005C11.0455 15.8739 9.8136 15.8739 9.44263 15.005L9.17816 14.3851C8.65819 13.1666 7.68779 12.1967 6.46988 11.6768L5.84944 11.4118C4.98053 11.0408 4.98053 9.80944 5.84944 9.43849Z" fill="white"/>
</g>
<defs>
<clipPath id="clip0_1115_6179">
<rect width="20.1961" height="20.1961" fill="white" transform="translate(0.331055 0.326904)"/>
</clipPath>
<clipPath id="clip1_1115_6179">
<rect width="20.1961" height="20.1961" fill="white" transform="translate(0.331055 0.327393)"/>
</clipPath>
</defs>
</svg>
