<svg width="81" height="13" viewBox="0 0 81 13" fill="none" xmlns="http://www.w3.org/2000/svg">
<g clip-path="url(#clip0_1115_5987)">
<path d="M15.7573 9.89238C15.5712 9.89238 15.4397 9.85384 15.3627 9.7769C15.2921 9.6999 15.2568 9.578 15.2568 9.41119V3.83929C15.2568 3.67242 15.2953 3.55052 15.3723 3.47358C15.4493 3.39014 15.5776 3.34843 15.7573 3.34843H18.115C19.0132 3.34843 19.6739 3.53772 20.0974 3.91623C20.5208 4.29475 20.7326 4.85931 20.7326 5.60991C20.7326 6.35414 20.5208 6.91551 20.0974 7.29403C19.6804 7.66618 19.0196 7.85222 18.115 7.85222H17.2008V9.41119C17.2008 9.578 17.1623 9.6999 17.0853 9.7769C17.0083 9.85384 16.8768 9.89238 16.6907 9.89238H15.7573ZM17.961 6.45681C18.2241 6.45681 18.4262 6.38624 18.5673 6.2451C18.7148 6.10396 18.7886 5.89225 18.7886 5.60997C18.7886 5.32126 18.7148 5.1063 18.5673 4.96516C18.4262 4.82402 18.2241 4.75345 17.961 4.75345H17.2008V6.45681H17.961ZM23.0052 10.0367C22.4022 10.0367 21.9178 9.84423 21.5521 9.45934C21.1928 9.06796 21.0132 8.51945 21.0132 7.81369C21.0132 7.2748 21.1351 6.80323 21.3789 6.39904C21.6291 5.99486 21.9788 5.68373 22.4279 5.46558C22.8834 5.24107 23.4062 5.12879 23.9964 5.12879C24.4841 5.12879 24.9139 5.18331 25.286 5.29241C25.6645 5.39501 26.0109 5.54577 26.3253 5.74468V9.59405C26.3253 9.71595 26.3029 9.79614 26.2579 9.83461C26.213 9.87314 26.1232 9.89238 25.9885 9.89238H25.0069C24.9363 9.89238 24.8818 9.88276 24.8433 9.86346C24.8048 9.83786 24.7728 9.79932 24.7471 9.74799L24.622 9.45934C24.4359 9.65818 24.2114 9.80257 23.9484 9.89238C23.6917 9.98861 23.3774 10.0367 23.0052 10.0367ZM23.727 8.72791C23.9772 8.72791 24.1729 8.66696 24.314 8.54512C24.4552 8.42321 24.5257 8.24997 24.5257 8.0254V6.5242C24.4039 6.46643 24.2499 6.43758 24.0638 6.43758C23.7238 6.43758 23.4511 6.55623 23.2458 6.79361C23.0469 7.03099 22.9475 7.3646 22.9475 7.79445C22.9475 8.41678 23.2073 8.72791 23.727 8.72791ZM27.6646 9.89238C27.4785 9.89238 27.347 9.85384 27.27 9.7769C27.193 9.6999 27.1545 9.578 27.1545 9.41119V5.57144C27.1545 5.45597 27.1738 5.37896 27.2122 5.34049C27.2571 5.29553 27.347 5.27311 27.4817 5.27311H28.4729C28.5499 5.27311 28.6077 5.28598 28.6461 5.31164C28.691 5.33088 28.7167 5.36935 28.7231 5.42711L28.7712 5.71583C28.9509 5.53615 29.1851 5.39501 29.4737 5.29241C29.7689 5.18331 30.0961 5.12879 30.4553 5.12879C30.975 5.12879 31.3952 5.27636 31.716 5.57144C32.0368 5.86015 32.1972 6.29 32.1972 6.86099V9.41119C32.1972 9.578 32.1587 9.6999 32.0817 9.7769C32.0111 9.85384 31.8828 9.89238 31.6967 9.89238H30.7633C30.5772 9.89238 30.4425 9.85384 30.3591 9.7769C30.2821 9.6999 30.2436 9.578 30.2436 9.41119V6.98608C30.2436 6.79361 30.2019 6.65572 30.1185 6.57228C30.0351 6.48891 29.9036 6.44719 29.724 6.44719C29.5315 6.44719 29.3775 6.49853 29.262 6.60113C29.153 6.7038 29.0985 6.84494 29.0985 7.02462V9.41119C29.0985 9.578 29.0599 9.6999 28.983 9.7769C28.9124 9.85384 28.7841 9.89238 28.598 9.89238H27.6646ZM35.5988 10.0367C34.7006 10.0367 34.0077 9.82818 33.5201 9.41119C33.0325 8.9942 32.7887 8.38793 32.7887 7.59236C32.7887 7.1048 32.901 6.67495 33.1255 6.30287C33.3501 5.93072 33.6741 5.64201 34.0975 5.43673C34.5273 5.23146 35.0342 5.12879 35.618 5.12879C36.0606 5.12879 36.4328 5.1705 36.7343 5.25387C37.0423 5.33731 37.3149 5.46558 37.5523 5.63882C37.6229 5.68379 37.6581 5.74149 37.6581 5.81206C37.6581 5.8634 37.6325 5.93072 37.5811 6.01416L37.1866 6.69737C37.1417 6.78724 37.0872 6.83214 37.023 6.83214C36.9845 6.83214 36.9235 6.80647 36.8402 6.75514C36.6669 6.6461 36.5034 6.56591 36.3494 6.51458C36.2018 6.46324 36.0157 6.43758 35.7912 6.43758C35.4704 6.43758 35.2106 6.54025 35.0117 6.74552C34.8192 6.9508 34.723 7.23308 34.723 7.59236C34.723 7.95807 34.8224 8.24035 35.0213 8.4392C35.2202 8.63167 35.4929 8.72791 35.8393 8.72791C36.0446 8.72791 36.2307 8.69906 36.3975 8.64129C36.5643 8.58359 36.7343 8.5034 36.9075 8.40073C36.9974 8.34939 37.0615 8.32373 37.1 8.32373C37.1577 8.32373 37.2091 8.36863 37.254 8.4585L37.687 9.19948C37.7191 9.26362 37.7351 9.31495 37.7351 9.35342C37.7351 9.41119 37.6966 9.46571 37.6197 9.51704C37.3502 9.69028 37.0551 9.81856 36.7343 9.90199C36.4199 9.9918 36.0414 10.0367 35.5988 10.0367ZM40.1751 10.0367C39.572 10.0367 39.0877 9.84423 38.722 9.45934C38.3627 9.06796 38.183 8.51945 38.183 7.81369C38.183 7.2748 38.305 6.80323 38.5488 6.39904C38.7989 5.99486 39.1486 5.68373 39.5977 5.46558C40.0532 5.24107 40.5761 5.12879 41.1663 5.12879C41.6539 5.12879 42.0837 5.18331 42.4558 5.29241C42.8344 5.39501 43.1808 5.54577 43.4952 5.74468V9.59405C43.4952 9.71595 43.4727 9.79614 43.4278 9.83461C43.3829 9.87314 43.2931 9.89238 43.1583 9.89238H42.1768C42.1062 9.89238 42.0516 9.88276 42.0132 9.86346C41.9747 9.83786 41.9426 9.79932 41.9169 9.74799L41.7919 9.45934C41.6058 9.65818 41.3812 9.80257 41.1182 9.89238C40.8616 9.98861 40.5472 10.0367 40.1751 10.0367ZM40.8969 8.72791C41.1471 8.72791 41.3428 8.66696 41.4839 8.54512C41.625 8.42321 41.6956 8.24997 41.6956 8.0254V6.5242C41.5737 6.46643 41.4198 6.43758 41.2337 6.43758C40.8937 6.43758 40.621 6.55623 40.4157 6.79361C40.2168 7.03099 40.1173 7.3646 40.1173 7.79445C40.1173 8.41678 40.3772 8.72791 40.8969 8.72791ZM49.5402 9.52666C49.5851 9.578 49.6076 9.63576 49.6076 9.6999C49.6076 9.75761 49.5884 9.80576 49.5499 9.84423C49.5114 9.87633 49.46 9.89238 49.3959 9.89238H47.9043C47.8145 9.89238 47.7471 9.88594 47.7022 9.87314C47.6637 9.85384 47.622 9.81856 47.5771 9.76729L46.2683 7.98693V9.41119C46.2683 9.578 46.2298 9.6999 46.1528 9.7769C46.0758 9.85384 45.9443 9.89238 45.7583 9.89238H44.8248C44.6388 9.89238 44.5072 9.85384 44.4302 9.7769C44.3597 9.6999 44.3244 9.578 44.3244 9.41119V3.83929C44.3244 3.67242 44.3628 3.55052 44.4398 3.47358C44.5169 3.39014 44.6452 3.34843 44.8248 3.34843H45.7583C45.9443 3.34843 46.0758 3.39014 46.1528 3.47358C46.2298 3.55052 46.2683 3.67242 46.2683 3.83923V7.06309L47.5386 5.40788C47.5771 5.35654 47.6188 5.32126 47.6637 5.30203C47.7086 5.28273 47.776 5.27311 47.8658 5.27311H49.3574C49.4216 5.27311 49.4697 5.29241 49.5018 5.33088C49.5402 5.36298 49.5595 5.40788 49.5595 5.46558C49.5595 5.52978 49.5371 5.58749 49.4921 5.63882L47.8466 7.52504L49.5402 9.52666ZM52.665 10.0367C52.1261 10.0367 51.6449 9.9469 51.2215 9.76729C50.8045 9.58761 50.4741 9.31814 50.2303 8.95892C49.9865 8.59964 49.8646 8.16017 49.8646 7.64051C49.8646 6.82571 50.0956 6.20338 50.5575 5.77353C51.0194 5.34368 51.6834 5.12879 52.5495 5.12879C53.3964 5.12879 54.038 5.34049 54.4742 5.76391C54.9169 6.18096 55.1382 6.76157 55.1382 7.50574C55.1382 7.82655 54.9971 7.98693 54.7148 7.98693H51.6931C51.6931 8.26277 51.7957 8.47455 52.001 8.62206C52.2127 8.76963 52.5303 8.84338 52.9537 8.84338C53.2167 8.84338 53.4349 8.82096 53.6081 8.77606C53.7877 8.72473 53.9674 8.65097 54.147 8.55473C54.224 8.52263 54.2753 8.50658 54.301 8.50658C54.3587 8.50658 54.4068 8.54512 54.4453 8.62206L54.7725 9.23795C54.8046 9.30215 54.8207 9.35024 54.8207 9.38234C54.8207 9.44004 54.7821 9.49462 54.7051 9.5459C54.4422 9.71914 54.1438 9.84423 53.8102 9.92123C53.4766 9.99823 53.0948 10.0367 52.665 10.0367ZM53.406 7.03423C53.406 6.79042 53.3355 6.60113 53.1943 6.46643C53.0532 6.33172 52.8414 6.26434 52.5591 6.26434C52.2768 6.26434 52.062 6.33491 51.9144 6.47605C51.7668 6.61081 51.6931 6.79686 51.6931 7.03423H53.406ZM58.4367 10.0367C57.8977 10.0367 57.3877 9.98218 56.9065 9.87314C56.4254 9.75761 56.0372 9.59723 55.7421 9.39195C55.633 9.32138 55.5785 9.24757 55.5785 9.17063C55.5785 9.11929 55.5978 9.06477 55.6362 9.00701L56.1078 8.2564C56.1591 8.1794 56.2104 8.14093 56.2617 8.14093C56.2938 8.14093 56.3484 8.16335 56.4254 8.20825C56.6627 8.34302 56.9322 8.45206 57.2337 8.53544C57.5352 8.61887 57.8336 8.66059 58.1287 8.66059C58.4302 8.66059 58.6516 8.61569 58.7927 8.52582C58.9403 8.43601 59.014 8.29169 59.014 8.09278C59.014 7.90031 58.9338 7.74955 58.7735 7.64051C58.6195 7.53141 58.3276 7.39352 57.8977 7.22671C57.2498 6.9829 56.7429 6.71024 56.3772 6.40866C56.0179 6.10078 55.8383 5.68373 55.8383 5.15764C55.8383 4.52251 56.0661 4.03814 56.5216 3.70452C56.9771 3.37085 57.5833 3.2041 58.3404 3.2041C58.8664 3.2041 59.3156 3.25219 59.6877 3.34843C60.0662 3.43829 60.3869 3.57943 60.65 3.77185C60.7591 3.85528 60.8136 3.93228 60.8136 4.00285C60.8136 4.04775 60.7944 4.09903 60.7558 4.15679L60.2843 4.90746C60.2266 4.9844 60.1752 5.02293 60.1303 5.02293C60.0983 5.02293 60.0437 5.00045 59.9668 4.95555C59.5946 4.71174 59.152 4.58989 58.6388 4.58989C58.3628 4.58989 58.1511 4.6348 58.0036 4.7246C57.8561 4.81441 57.7822 4.96198 57.7822 5.16726C57.7822 5.30839 57.8208 5.42393 57.8977 5.51373C57.9747 5.60354 58.0774 5.68373 58.2057 5.7543C58.3404 5.81843 58.5457 5.90187 58.8215 6.00454L59.0044 6.07186C59.4792 6.25797 59.8513 6.43758 60.1207 6.61082C60.3966 6.77756 60.6051 6.98608 60.7462 7.23633C60.8874 7.48007 60.9579 7.78802 60.9579 8.16017C60.9579 8.73116 60.743 9.18668 60.3132 9.52666C59.8898 9.86671 59.2643 10.0367 58.4367 10.0367ZM63.0027 9.89238C62.9065 9.89238 62.8328 9.87633 62.7813 9.84423C62.73 9.81219 62.6915 9.74799 62.6658 9.65175L61.4244 5.49444C61.4116 5.45597 61.4052 5.42711 61.4052 5.40788C61.4052 5.31808 61.4693 5.27311 61.5976 5.27311H62.8678C62.9514 5.27311 63.012 5.28916 63.0507 5.3212C63.0895 5.34693 63.1151 5.39177 63.1276 5.45597L63.6472 7.64051L64.3016 5.87939C64.3341 5.80245 64.366 5.75111 64.3978 5.72544C64.4365 5.69334 64.5009 5.67736 64.5908 5.67736H65.1966C65.2865 5.67736 65.3477 5.69334 65.3795 5.72544C65.4183 5.75105 65.4532 5.80245 65.4857 5.87939L66.1302 7.64051L66.6598 5.45597C66.6785 5.39183 66.7041 5.34693 66.7366 5.32126C66.7685 5.28916 66.8265 5.27317 66.9096 5.27317H68.1899C68.3179 5.27317 68.3822 5.31808 68.3822 5.40788C68.3822 5.42711 68.376 5.45597 68.3628 5.49444L67.1119 9.65175C67.0863 9.74799 67.0476 9.81219 66.9964 9.84423C66.9514 9.87633 66.8809 9.89238 66.7847 9.89238H65.8417C65.7518 9.89238 65.6843 9.87633 65.6393 9.84423C65.5944 9.80576 65.5563 9.74162 65.5238 9.65175L64.8887 7.90992L64.2536 9.65175C64.2279 9.74162 64.1892 9.80576 64.138 9.84423C64.0931 9.87633 64.0262 9.89238 63.9363 9.89238H63.0027ZM70.8215 10.0367C70.2183 10.0367 69.7343 9.84423 69.3683 9.45934C69.0092 9.06796 68.8294 8.51945 68.8294 7.81369C68.8294 7.2748 68.9511 6.80323 69.1953 6.39904C69.4451 5.99486 69.7948 5.68373 70.2439 5.46558C70.6998 5.24107 71.2225 5.12879 71.8126 5.12879C72.3004 5.12879 72.7301 5.18331 73.1023 5.29241C73.4807 5.39501 73.8273 5.54577 74.1415 5.74468V9.59405C74.1415 9.71595 74.119 9.79614 74.074 9.83461C74.029 9.87314 73.9397 9.89238 73.8048 9.89238H72.8231C72.7525 9.89238 72.6982 9.88276 72.6595 9.86346C72.6208 9.83786 72.5889 9.79932 72.5633 9.74799L72.4384 9.45934C72.2523 9.65818 72.0275 9.80257 71.7646 9.89238C71.5079 9.98861 71.1938 10.0367 70.8215 10.0367ZM71.5435 8.72791C71.7933 8.72791 71.9894 8.66696 72.1305 8.54512C72.2717 8.42321 72.3422 8.24997 72.3422 8.0254V6.5242C72.2198 6.46643 72.0662 6.43758 71.8801 6.43758C71.5397 6.43758 71.2674 6.55623 71.062 6.79361C70.8634 7.03099 70.7635 7.3646 70.7635 7.79445C70.7635 8.41678 71.0239 8.72791 71.5435 8.72791ZM75.471 11.8363C75.2849 11.8363 75.1538 11.7978 75.0763 11.7208C75.0058 11.6438 74.9708 11.5219 74.9708 11.3551V5.84092C75.2593 5.63564 75.6222 5.46558 76.0581 5.33088C76.4946 5.19617 76.9499 5.12879 77.4245 5.12879C79.3624 5.12879 80.331 5.95002 80.331 7.59236C80.331 8.33659 80.1255 8.93 79.7152 9.37272C79.3043 9.81537 78.7241 10.0367 77.9735 10.0367C77.7618 10.0367 77.5563 10.011 77.3571 9.9597C77.1647 9.90843 77.0042 9.83786 76.8762 9.74799V11.3551C76.8762 11.5219 76.8375 11.6438 76.7607 11.7208C76.6838 11.7978 76.5521 11.8363 76.366 11.8363H75.471ZM77.5594 8.73753C77.8354 8.73753 78.0409 8.63492 78.1752 8.42958C78.3163 8.21787 78.3869 7.93559 78.3869 7.58274C78.3869 7.16576 78.3038 6.8738 78.1371 6.70699C77.9766 6.53381 77.7262 6.44719 77.3864 6.44719C77.1678 6.44719 76.9949 6.47605 76.8668 6.53381V8.06393C76.8668 8.28207 76.9274 8.44888 77.0492 8.56435C77.1716 8.67982 77.3415 8.73753 77.5594 8.73753Z" fill="white"/>
<path fill-rule="evenodd" clip-rule="evenodd" d="M6.42361 12.7345C4.60054 12.7332 3.13193 12.2957 2.10586 11.5099C1.06748 10.7147 0.516602 9.58626 0.516602 8.30932C0.516602 7.07896 1.06623 6.19178 1.68819 5.59206C2.17562 5.12212 2.71345 4.82117 3.08797 4.64799C3.00328 4.38807 2.89762 4.04783 2.80307 3.69636C2.6766 3.2261 2.55251 2.67428 2.55251 2.26997C2.55251 1.79141 2.6568 1.31072 2.93815 0.937263C3.23541 0.542696 3.68294 0.331299 4.22127 0.331299C4.642 0.331299 4.99922 0.487364 5.27882 0.756592C5.54611 1.01389 5.7241 1.35569 5.84694 1.71197C6.06277 2.33798 6.14683 3.12449 6.17037 3.90944H6.68603C6.70964 3.12449 6.79363 2.33798 7.00953 1.71197C7.13237 1.35569 7.31023 1.01395 7.57758 0.756592C7.85724 0.487427 8.2144 0.331299 8.63513 0.331299C9.17353 0.331299 9.62099 0.542696 9.91826 0.937263C10.1996 1.31072 10.304 1.79141 10.304 2.26997C10.304 2.67428 10.1798 3.2261 10.0533 3.69636C9.95879 4.04783 9.85312 4.38807 9.76844 4.64799C10.143 4.82117 10.6808 5.12212 11.1682 5.59213C11.7902 6.19178 12.3398 7.07896 12.3398 8.30932C12.3398 9.58626 11.789 10.7147 10.7505 11.5099C9.72447 12.2957 8.25587 12.7332 6.43279 12.7345H6.42361Z" fill="#633001"/>
<path d="M4.22101 0.786377C3.43257 0.786377 3.0696 1.38066 3.0696 2.20246C3.0696 2.8557 3.49133 4.16393 3.66432 4.67322C3.70329 4.78781 3.64209 4.91328 3.53055 4.95768C2.89861 5.20942 1.03369 6.13108 1.03369 8.24186C1.03369 10.4653 2.9289 12.1418 6.42386 12.1445L6.42798 12.1444L6.43216 12.1445C9.92706 12.1418 11.8223 10.4653 11.8223 8.24186C11.8223 6.13108 9.95734 5.20942 9.3254 4.95768C9.21386 4.91334 9.15272 4.78781 9.19163 4.67322C9.36468 4.16399 9.78642 2.8557 9.78642 2.20246C9.78642 1.3806 9.42345 0.786377 8.63494 0.786377C7.49995 0.786377 7.21699 2.41055 7.19681 4.15375C7.1955 4.27009 7.10233 4.36452 6.98717 4.36452H5.86885C5.75363 4.36452 5.66051 4.27009 5.65914 4.15375C5.63897 2.41055 5.35606 0.786377 4.22101 0.786377Z" fill="#D1884F"/>
<path d="M6.43216 11.4322C3.86429 11.4322 1.03813 10.0436 1.03369 8.24609V8.25446C1.03369 10.4797 2.9319 12.1571 6.43216 12.1571C9.93243 12.1571 11.8306 10.4797 11.8306 8.25446V8.24609C11.8262 10.0436 9.00003 11.4322 6.43216 11.4322Z" fill="#FEDC90"/>
<path d="M5.00556 7.69396C5.00556 8.30086 4.72166 8.61693 4.37143 8.61693C4.02121 8.61693 3.7373 8.30086 3.7373 7.69396C3.7373 7.08706 4.02121 6.771 4.37143 6.771C4.72166 6.771 5.00556 7.08706 5.00556 7.69396ZM9.12741 7.69396C9.12741 8.30086 8.8435 8.61693 8.49328 8.61693C8.14305 8.61693 7.85915 8.30086 7.85915 7.69396C7.85915 7.08706 8.14305 6.771 8.49328 6.771C8.8435 6.771 9.12741 7.08706 9.12741 7.69396Z" fill="#633001"/>
</g>
<defs>
<clipPath id="clip0_1115_5987">
<rect width="80" height="12.4278" fill="white" transform="translate(0.331055 0.331299)"/>
</clipPath>
</defs>
</svg>
