<?xml version="1.0" standalone="no"?>
<!DOCTYPE svg PUBLIC "-//W3C//DTD SVG 20010904//EN"
 "http://www.w3.org/TR/2001/REC-SVG-20010904/DTD/svg10.dtd">
<svg version="1.0" xmlns="http://www.w3.org/2000/svg"
 width="260.000000pt" height="260.000000pt" viewBox="0 0 260.000000 260.000000"
 preserveAspectRatio="xMidYMid meet">
<metadata>
Created by potrace 1.14, written by Peter Selinger 2001-2017
</metadata>
<g transform="translate(0.000000,260.000000) scale(0.100000,-0.100000)"
fill="#000000" stroke="none">
<path d="M0 1300 l0 -1300 1300 0 1300 0 0 1300 0 1300 -1300 0 -1300 0 0
-1300z m1415 915 c130 -34 228 -99 303 -200 89 -120 117 -234 110 -449 -6
-159 -21 -214 -86 -306 -45 -66 -140 -132 -225 -159 l-62 -20 189 0 189 -1 -5
-137 c-4 -114 -10 -151 -31 -212 -48 -138 -141 -242 -271 -306 -234 -115 -523
-35 -670 187 -66 100 -79 152 -84 351 -3 159 -2 184 17 246 39 129 145 238
274 282 l52 18 -172 1 -173 0 0 128 c0 204 41 315 160 434 131 131 318 186
485 143z"/>
<path d="M1226 1834 l-26 -27 0 -504 c0 -342 3 -511 11 -525 14 -27 74 -51
109 -43 15 3 38 17 51 31 l24 26 0 510 0 510 -28 24 c-40 34 -105 33 -141 -2z"/>
</g>
</svg>
